<svg xmlns="http://www.w3.org/2000/svg" xmlns:xlink="http://www.w3.org/1999/xlink" width="64" height="64" viewBox="0 0 64 64" id="dice">
  <defs>
    <path id="path-1" d="M.06 64V.04H64V64z"></path>
  </defs>
  <g id="Page-1" fill="none" fill-rule="evenodd" stroke="none" stroke-width="1">
    <g id="die">
      <g id="Group-3">
        <mask id="mask-2" fill="#fff">
          <use xlink:href="#path-1"></use>
        </mask>
        <path id="Fill-1" fill="#73BBA3" d="M64 32c0 17.673-14.327 32-32 32C14.327 64 0 49.673 0 32 0 14.327 14.327 0 32 0c17.673 0 32 14.327 32 32" mask="url(#mask-2)"></path>
      </g>
      <path id="Fill-4" fill="#629986" d="M32 57.158c-1.399 0-2.718-.317-3.714-.892l-13.711-7.917c-2.048-1.182-3.715-4.068-3.715-6.433V26.084c0-2.365 1.667-5.251 3.715-6.433l13.711-7.917c.996-.575 2.355-.862 3.714-.862s2.718.287 3.714.862l13.711 7.917c2.048 1.182 3.715 4.068 3.715 6.433v15.832c0 2.365-1.667 5.251-3.715 6.433l-13.711 7.917c-.996.575-2.315.892-3.714.892"></path>
      <path id="Fill-5" fill="#DEDECA" d="M35.464 10.168c-1.905-1.1-5.023-1.1-6.928 0l-13.711 7.916c-1.906 1.1-3.464 3.8-3.464 6v15.832c0 2.2 1.558 4.9 3.464 6l13.711 7.916c1.905 1.1 5.023 1.1 6.928 0l13.711-7.916c1.906-1.1 3.464-3.8 3.464-6V24.084c0-2.2-1.558-4.9-3.464-6l-13.711-7.916"></path>
      <path id="Fill-6" fill="#DEDECA" d="M32 9.843c-1.226 0-2.367.269-3.214.758l-13.711 7.916c-1.743 1.005-3.215 3.555-3.215 5.567v15.832c0 2.012 1.472 4.562 3.215 5.567l13.711 7.916c1.693.977 4.735.977 6.428 0l13.711-7.916c1.743-1.005 3.215-3.555 3.215-5.567V24.084c0-2.012-1.472-4.562-3.215-5.567l-13.711-7.916c-.847-.489-1.988-.758-3.214-.758zm0 45.314c-1.399 0-2.718-.316-3.714-.892l-13.711-7.916c-2.048-1.182-3.715-4.068-3.715-6.433V24.084c0-2.365 1.667-5.251 3.715-6.433l13.711-7.916c1.992-1.152 5.436-1.152 7.428 0l13.711 7.916c2.048 1.182 3.715 4.068 3.715 6.433v15.832c0 2.365-1.667 5.251-3.715 6.433l-13.711 7.916c-.996.576-2.315.892-3.714.892z"></path>
      <path id="Fill-7" fill="#FFFFFE" d="M32 29.825c-1.123 0-2.203-.252-2.964-.691l-13.711-7.916c-.591-.341-.929-.754-.929-1.135 0-.379.338-.792.929-1.133l13.711-7.916c.761-.44 1.841-.692 2.964-.692s2.203.252 2.964.691l13.711 7.917c.591.341.929.754.929 1.133 0 .381-.338.794-.929 1.135l-13.711 7.916c-.761.439-1.841.691-2.964.691"></path>
      <path id="Fill-8" fill="#FFFFFE" d="M29.909 53.302c-.3 0-.66-.116-1.04-.335L15.158 45.05c-1.607-.927-2.964-3.279-2.964-5.134V24.084c0-.442.09-1.47.925-1.47.299 0 .659.116 1.039.336l13.711 7.916c1.607.928 2.964 3.279 2.964 5.134v15.833c0 .517-.112.941-.315 1.194-.15.188-.344.275-.609.275"></path>
      <path id="Fill-9" fill="#FFFFFE" d="M33.925 53.302c-.835 0-.925-1.028-.925-1.469V36c0-1.855 1.357-4.206 2.964-5.134l13.711-7.916c.381-.22.74-.336 1.039-.336.835 0 .926 1.028.926 1.47v15.832c0 1.855-1.358 4.207-2.965 5.134l-13.711 7.916c-.38.22-.739.336-1.039.336"></path>
      <path id="Fill-10" fill="#4C5665" d="M32 21.5c-1.265 0-2.333-.648-2.333-1.416 0-.768 1.068-1.417 2.333-1.417 1.265 0 2.333.649 2.333 1.417S33.265 21.5 32 21.5"></path>
      <path id="Fill-11" fill="#4C5665" d="M15.146 42.368c-.768 0-1.416-.951-1.416-2.076 0-1.126.648-2.077 1.416-2.077.767 0 1.416.951 1.416 2.077 0 1.125-.649 2.076-1.416 2.076"></path>
      <path id="Fill-12" fill="#4C5665" d="M48.354 42.368c-.767 0-1.416-.951-1.416-2.076 0-1.126.649-2.077 1.416-2.077.768 0 1.416.951 1.416 2.077 0 1.125-.648 2.076-1.416 2.076"></path>
      <path id="Fill-13" fill="#4C5665" d="M15.146 30.431c-.768 0-1.416-.951-1.416-2.077 0-1.125.648-2.076 1.416-2.076.767 0 1.416.951 1.416 2.076 0 1.126-.649 2.077-1.416 2.077"></path>
      <path id="Fill-14" fill="#4C5665" d="M26.917 38.118c-.768 0-1.416-.951-1.416-2.076 0-1.126.648-2.077 1.416-2.077.768 0 1.416.951 1.416 2.077 0 1.125-.648 2.076-1.416 2.076"></path>
      <path id="Fill-15" fill="#4C5665" d="M36.959 38.118c-.768 0-1.416-.951-1.416-2.076 0-1.126.648-2.077 1.416-2.077.767 0 1.416.951 1.416 2.077 0 1.125-.649 2.076-1.416 2.076"></path>
      <path id="Fill-16" fill="#4C5665" d="M26.917 49.139c-.768 0-1.416-.951-1.416-2.076 0-1.126.648-2.077 1.416-2.077.768 0 1.416.951 1.416 2.077 0 1.125-.648 2.076-1.416 2.076"></path>
    </g>
  </g>
</svg>
